<svg width="30" height="30" viewBox="0 0 30 30" fill="none" xmlns="http://www.w3.org/2000/svg">
<rect x="-3.05176e-05" y="-0.000183105" width="30" height="30" rx="10" fill="url(#paint0_linear)"/>
<path d="M19.1976 16.9817C19.3785 16.7936 19.3785 16.4976 19.1976 16.3095C19.0104 16.1278 18.7089 16.1278 18.5284 16.3095L15.1351 19.7178V8.47038C15.1351 8.2082 14.9277 7.99982 14.6666 7.99982C14.4056 7.99982 14.1914 8.2082 14.1914 8.47038V19.7178L10.8049 16.3095C10.6176 16.1278 10.3229 16.1278 10.1356 16.3095C9.95474 16.4976 9.95474 16.7936 10.1356 16.9817L14.3322 21.1969C14.5131 21.3786 14.8142 21.3786 15.0015 21.1969L19.1976 16.9817Z" fill="white"/>
<defs>
<linearGradient id="paint0_linear" x1="5.53735" y1="50.6248" x2="-25.5" y2="17.9575" gradientUnits="userSpaceOnUse">
<stop stop-color="#0170B0"/>
<stop offset="1" stop-color="#18BBEB"/>
</linearGradient>
</defs>
</svg>
